<mxfile host="app.diagrams.net" agent="Mozilla/5.0 (Macintosh; Intel Mac OS X 10_15_7) AppleWebKit/537.36 (KHTML, like Gecko) Chrome/134.0.0.0 Safari/537.36" version="26.2.4">
  <diagram name="第 1 页" id="wGF2xLPZLpaMPtjzQxkS">
    <mxGraphModel dx="1044" dy="881" grid="1" gridSize="10" guides="1" tooltips="1" connect="1" arrows="1" fold="1" page="1" pageScale="1" pageWidth="827" pageHeight="1169" math="0" shadow="0">
      <root>
        <mxCell id="0" />
        <mxCell id="1" parent="0" />
        <mxCell id="42X3hDEc5ZLvo6Z6F42K-3" value="" style="edgeStyle=orthogonalEdgeStyle;rounded=0;orthogonalLoop=1;jettySize=auto;html=1;" edge="1" parent="1" source="42X3hDEc5ZLvo6Z6F42K-1" target="42X3hDEc5ZLvo6Z6F42K-2">
          <mxGeometry relative="1" as="geometry" />
        </mxCell>
        <mxCell id="42X3hDEc5ZLvo6Z6F42K-1" value="1" style="ellipse;whiteSpace=wrap;html=1;aspect=fixed;" vertex="1" parent="1">
          <mxGeometry x="320" width="80" height="80" as="geometry" />
        </mxCell>
        <mxCell id="42X3hDEc5ZLvo6Z6F42K-5" value="" style="edgeStyle=orthogonalEdgeStyle;rounded=0;orthogonalLoop=1;jettySize=auto;html=1;" edge="1" parent="1" source="42X3hDEc5ZLvo6Z6F42K-2" target="42X3hDEc5ZLvo6Z6F42K-4">
          <mxGeometry relative="1" as="geometry" />
        </mxCell>
        <mxCell id="42X3hDEc5ZLvo6Z6F42K-2" value="2" style="ellipse;whiteSpace=wrap;html=1;aspect=fixed;" vertex="1" parent="1">
          <mxGeometry x="320" y="160" width="80" height="80" as="geometry" />
        </mxCell>
        <mxCell id="42X3hDEc5ZLvo6Z6F42K-7" value="" style="edgeStyle=orthogonalEdgeStyle;rounded=0;orthogonalLoop=1;jettySize=auto;html=1;" edge="1" parent="1" source="42X3hDEc5ZLvo6Z6F42K-4" target="42X3hDEc5ZLvo6Z6F42K-6">
          <mxGeometry relative="1" as="geometry" />
        </mxCell>
        <mxCell id="42X3hDEc5ZLvo6Z6F42K-4" value="3" style="ellipse;whiteSpace=wrap;html=1;aspect=fixed;" vertex="1" parent="1">
          <mxGeometry x="480" y="160" width="80" height="80" as="geometry" />
        </mxCell>
        <mxCell id="42X3hDEc5ZLvo6Z6F42K-9" value="" style="edgeStyle=orthogonalEdgeStyle;rounded=0;orthogonalLoop=1;jettySize=auto;html=1;" edge="1" parent="1" source="42X3hDEc5ZLvo6Z6F42K-6" target="42X3hDEc5ZLvo6Z6F42K-8">
          <mxGeometry relative="1" as="geometry" />
        </mxCell>
        <mxCell id="42X3hDEc5ZLvo6Z6F42K-6" value="4" style="ellipse;whiteSpace=wrap;html=1;aspect=fixed;" vertex="1" parent="1">
          <mxGeometry x="640" y="160" width="80" height="80" as="geometry" />
        </mxCell>
        <mxCell id="42X3hDEc5ZLvo6Z6F42K-40" value="" style="edgeStyle=orthogonalEdgeStyle;rounded=0;orthogonalLoop=1;jettySize=auto;html=1;" edge="1" parent="1" source="42X3hDEc5ZLvo6Z6F42K-8" target="42X3hDEc5ZLvo6Z6F42K-10">
          <mxGeometry relative="1" as="geometry" />
        </mxCell>
        <mxCell id="42X3hDEc5ZLvo6Z6F42K-8" value="5" style="ellipse;whiteSpace=wrap;html=1;aspect=fixed;" vertex="1" parent="1">
          <mxGeometry x="640" y="320" width="80" height="80" as="geometry" />
        </mxCell>
        <mxCell id="42X3hDEc5ZLvo6Z6F42K-22" value="" style="edgeStyle=orthogonalEdgeStyle;rounded=0;orthogonalLoop=1;jettySize=auto;html=1;" edge="1" parent="1" source="42X3hDEc5ZLvo6Z6F42K-10" target="42X3hDEc5ZLvo6Z6F42K-16">
          <mxGeometry relative="1" as="geometry" />
        </mxCell>
        <mxCell id="42X3hDEc5ZLvo6Z6F42K-10" value="6" style="ellipse;whiteSpace=wrap;html=1;aspect=fixed;direction=south;" vertex="1" parent="1">
          <mxGeometry x="480" y="320" width="80" height="80" as="geometry" />
        </mxCell>
        <mxCell id="42X3hDEc5ZLvo6Z6F42K-15" value="" style="endArrow=classic;html=1;rounded=0;entryX=0;entryY=0;entryDx=0;entryDy=0;exitX=0;exitY=1;exitDx=0;exitDy=0;" edge="1" parent="1" source="42X3hDEc5ZLvo6Z6F42K-6" target="42X3hDEc5ZLvo6Z6F42K-10">
          <mxGeometry width="50" height="50" relative="1" as="geometry">
            <mxPoint x="390" y="480" as="sourcePoint" />
            <mxPoint x="440" y="430" as="targetPoint" />
          </mxGeometry>
        </mxCell>
        <mxCell id="42X3hDEc5ZLvo6Z6F42K-21" value="" style="edgeStyle=orthogonalEdgeStyle;rounded=0;orthogonalLoop=1;jettySize=auto;html=1;" edge="1" parent="1" source="42X3hDEc5ZLvo6Z6F42K-16" target="42X3hDEc5ZLvo6Z6F42K-18">
          <mxGeometry relative="1" as="geometry" />
        </mxCell>
        <mxCell id="42X3hDEc5ZLvo6Z6F42K-23" value="" style="edgeStyle=orthogonalEdgeStyle;rounded=0;orthogonalLoop=1;jettySize=auto;html=1;" edge="1" parent="1" source="42X3hDEc5ZLvo6Z6F42K-16" target="42X3hDEc5ZLvo6Z6F42K-17">
          <mxGeometry relative="1" as="geometry" />
        </mxCell>
        <mxCell id="42X3hDEc5ZLvo6Z6F42K-16" value="7" style="ellipse;whiteSpace=wrap;html=1;aspect=fixed;" vertex="1" parent="1">
          <mxGeometry x="320" y="320" width="80" height="80" as="geometry" />
        </mxCell>
        <mxCell id="42X3hDEc5ZLvo6Z6F42K-17" value="8" style="ellipse;whiteSpace=wrap;html=1;aspect=fixed;" vertex="1" parent="1">
          <mxGeometry x="160" y="320" width="80" height="80" as="geometry" />
        </mxCell>
        <mxCell id="42X3hDEc5ZLvo6Z6F42K-20" value="" style="edgeStyle=orthogonalEdgeStyle;rounded=0;orthogonalLoop=1;jettySize=auto;html=1;" edge="1" parent="1" source="42X3hDEc5ZLvo6Z6F42K-18" target="42X3hDEc5ZLvo6Z6F42K-19">
          <mxGeometry relative="1" as="geometry" />
        </mxCell>
        <mxCell id="42X3hDEc5ZLvo6Z6F42K-18" value="9" style="ellipse;whiteSpace=wrap;html=1;aspect=fixed;" vertex="1" parent="1">
          <mxGeometry x="320" y="480" width="80" height="80" as="geometry" />
        </mxCell>
        <mxCell id="42X3hDEc5ZLvo6Z6F42K-19" value="10" style="ellipse;whiteSpace=wrap;html=1;aspect=fixed;" vertex="1" parent="1">
          <mxGeometry x="320" y="640" width="80" height="80" as="geometry" />
        </mxCell>
        <mxCell id="42X3hDEc5ZLvo6Z6F42K-25" value="" style="endArrow=classic;html=1;rounded=0;" edge="1" parent="1" source="42X3hDEc5ZLvo6Z6F42K-2" target="42X3hDEc5ZLvo6Z6F42K-17">
          <mxGeometry width="50" height="50" relative="1" as="geometry">
            <mxPoint x="230" y="410" as="sourcePoint" />
            <mxPoint x="280" y="360" as="targetPoint" />
          </mxGeometry>
        </mxCell>
        <mxCell id="42X3hDEc5ZLvo6Z6F42K-26" value="" style="endArrow=classic;html=1;rounded=0;exitX=0;exitY=1;exitDx=0;exitDy=0;entryX=1;entryY=0;entryDx=0;entryDy=0;" edge="1" parent="1" source="42X3hDEc5ZLvo6Z6F42K-4" target="42X3hDEc5ZLvo6Z6F42K-16">
          <mxGeometry width="50" height="50" relative="1" as="geometry">
            <mxPoint x="390" y="420" as="sourcePoint" />
            <mxPoint x="420" y="360" as="targetPoint" />
          </mxGeometry>
        </mxCell>
        <mxCell id="42X3hDEc5ZLvo6Z6F42K-27" value="" style="endArrow=classic;html=1;rounded=0;exitX=1;exitY=1;exitDx=0;exitDy=0;entryX=0;entryY=0;entryDx=0;entryDy=0;" edge="1" parent="1" source="42X3hDEc5ZLvo6Z6F42K-17" target="42X3hDEc5ZLvo6Z6F42K-18">
          <mxGeometry width="50" height="50" relative="1" as="geometry">
            <mxPoint x="300" y="480" as="sourcePoint" />
            <mxPoint x="350" y="430" as="targetPoint" />
          </mxGeometry>
        </mxCell>
        <mxCell id="42X3hDEc5ZLvo6Z6F42K-28" value="" style="endArrow=classic;html=1;rounded=0;entryX=1;entryY=0;entryDx=0;entryDy=0;exitX=1;exitY=1;exitDx=0;exitDy=0;" edge="1" parent="1" source="42X3hDEc5ZLvo6Z6F42K-10" target="42X3hDEc5ZLvo6Z6F42K-18">
          <mxGeometry width="50" height="50" relative="1" as="geometry">
            <mxPoint x="430" y="550" as="sourcePoint" />
            <mxPoint x="480" y="500" as="targetPoint" />
          </mxGeometry>
        </mxCell>
        <mxCell id="42X3hDEc5ZLvo6Z6F42K-31" value="" style="endArrow=classic;html=1;rounded=0;entryX=1;entryY=0.5;entryDx=0;entryDy=0;exitX=0;exitY=1;exitDx=0;exitDy=0;" edge="1" parent="1" source="42X3hDEc5ZLvo6Z6F42K-8" target="42X3hDEc5ZLvo6Z6F42K-18">
          <mxGeometry width="50" height="50" relative="1" as="geometry">
            <mxPoint x="300" y="480" as="sourcePoint" />
            <mxPoint x="350" y="430" as="targetPoint" />
          </mxGeometry>
        </mxCell>
        <mxCell id="42X3hDEc5ZLvo6Z6F42K-32" value="leap=1" style="text;html=1;align=center;verticalAlign=middle;resizable=0;points=[];autosize=1;strokeColor=none;fillColor=none;" vertex="1" parent="1">
          <mxGeometry x="100" y="360" width="60" height="30" as="geometry" />
        </mxCell>
        <mxCell id="42X3hDEc5ZLvo6Z6F42K-33" value="N" style="text;html=1;align=center;verticalAlign=middle;resizable=0;points=[];autosize=1;strokeColor=none;fillColor=none;" vertex="1" parent="1">
          <mxGeometry x="235" y="250" width="30" height="30" as="geometry" />
        </mxCell>
        <mxCell id="42X3hDEc5ZLvo6Z6F42K-34" value="Y" style="text;html=1;align=center;verticalAlign=middle;resizable=0;points=[];autosize=1;strokeColor=none;fillColor=none;" vertex="1" parent="1">
          <mxGeometry x="434" y="160" width="30" height="30" as="geometry" />
        </mxCell>
        <mxCell id="42X3hDEc5ZLvo6Z6F42K-35" value="start" style="text;html=1;align=center;verticalAlign=middle;resizable=0;points=[];autosize=1;strokeColor=none;fillColor=none;" vertex="1" parent="1">
          <mxGeometry x="414" y="30" width="50" height="30" as="geometry" />
        </mxCell>
        <mxCell id="42X3hDEc5ZLvo6Z6F42K-36" value="Y" style="text;html=1;align=center;verticalAlign=middle;resizable=0;points=[];autosize=1;strokeColor=none;fillColor=none;" vertex="1" parent="1">
          <mxGeometry x="575" y="158" width="30" height="30" as="geometry" />
        </mxCell>
        <mxCell id="42X3hDEc5ZLvo6Z6F42K-37" value="N" style="text;html=1;align=center;verticalAlign=middle;resizable=0;points=[];autosize=1;strokeColor=none;fillColor=none;" vertex="1" parent="1">
          <mxGeometry x="404" y="250" width="30" height="30" as="geometry" />
        </mxCell>
        <mxCell id="42X3hDEc5ZLvo6Z6F42K-38" value="N" style="text;html=1;align=center;verticalAlign=middle;resizable=0;points=[];autosize=1;strokeColor=none;fillColor=none;" vertex="1" parent="1">
          <mxGeometry x="545" y="250" width="30" height="30" as="geometry" />
        </mxCell>
        <mxCell id="42X3hDEc5ZLvo6Z6F42K-39" value="Y" style="text;html=1;align=center;verticalAlign=middle;resizable=0;points=[];autosize=1;strokeColor=none;fillColor=none;" vertex="1" parent="1">
          <mxGeometry x="705" y="250" width="30" height="30" as="geometry" />
        </mxCell>
        <mxCell id="42X3hDEc5ZLvo6Z6F42K-42" value="return leap;" style="text;whiteSpace=wrap;" vertex="1" parent="1">
          <mxGeometry x="440" y="510" width="90" height="40" as="geometry" />
        </mxCell>
        <mxCell id="42X3hDEc5ZLvo6Z6F42K-43" value="if (year % 400 == 0)" style="text;whiteSpace=wrap;" vertex="1" parent="1">
          <mxGeometry x="620" y="110" width="140" height="40" as="geometry" />
        </mxCell>
        <mxCell id="42X3hDEc5ZLvo6Z6F42K-44" value="if (year % 4 == 0)" style="text;whiteSpace=wrap;" vertex="1" parent="1">
          <mxGeometry x="235" y="110" width="130" height="40" as="geometry" />
        </mxCell>
        <mxCell id="42X3hDEc5ZLvo6Z6F42K-45" value="if (year % 100 == 0)" style="text;whiteSpace=wrap;" vertex="1" parent="1">
          <mxGeometry x="420" y="110" width="140" height="40" as="geometry" />
        </mxCell>
        <mxCell id="42X3hDEc5ZLvo6Z6F42K-46" value="leap=1" style="text;html=1;align=center;verticalAlign=middle;resizable=0;points=[];autosize=1;strokeColor=none;fillColor=none;" vertex="1" parent="1">
          <mxGeometry x="419" y="360" width="60" height="30" as="geometry" />
        </mxCell>
        <mxCell id="42X3hDEc5ZLvo6Z6F42K-48" value="leap=0" style="text;html=1;align=center;verticalAlign=middle;resizable=0;points=[];autosize=1;strokeColor=none;fillColor=none;" vertex="1" parent="1">
          <mxGeometry x="260" y="360" width="60" height="30" as="geometry" />
        </mxCell>
        <mxCell id="42X3hDEc5ZLvo6Z6F42K-51" value="leap=0" style="text;html=1;align=center;verticalAlign=middle;resizable=0;points=[];autosize=1;strokeColor=none;fillColor=none;" vertex="1" parent="1">
          <mxGeometry x="580" y="360" width="60" height="30" as="geometry" />
        </mxCell>
      </root>
    </mxGraphModel>
  </diagram>
</mxfile>
